<?xml version="1.0" standalone="no"?>
<!DOCTYPE svg PUBLIC "-//W3C//DTD SVG 20010904//EN" "http://www.w3.org/TR/2001/REC-SVG-20010904/DTD/svg10.dtd">
<!-- Created using Krita: https://krita.org -->
<svg xmlns="http://www.w3.org/2000/svg" 
    xmlns:xlink="http://www.w3.org/1999/xlink"
    xmlns:krita="http://krita.org/namespaces/svg/krita"
    xmlns:sodipodi="http://sodipodi.sourceforge.net/DTD/sodipodi-0.dtd"
    width="122.88pt"
    height="122.88pt"
    viewBox="0 0 122.88 122.88">
<defs/>
<path id="shape0" transform="translate(1.39482866788164, 18.2820347078088)" fill="#cad9d9" fill-rule="evenodd" stroke="#cad9d9" stroke-width="0.24" stroke-linecap="square" stroke-linejoin="bevel" d="M31.6715 45.6952L28.9421 42.6864L17.3083 45.625C9.68369 40.4615 4.37613 28.6558 0 14.1799C6.50605 2.26128 16.1611 6.11431 24.3759 6.03447C23.9272 3.99442 23.5393 1.98645 24.8865 0.893812C35.6063 17.2098 70.4996 8.8731 66.556 0L67.2707 9.10946C69.4031 13.9916 53.9388 28.0723 25.8587 12.7306C15.2783 12.2621 8.47296 13.1423 7.66814 16.166L16.5907 37.0196C19.4648 38.2638 22.963 37.9588 27.571 34.8992L29.4836 28.8665L30.0883 33.6707C33.0143 36.8899 36.099 38.6883 39.2917 39.5193L46.5413 34.1142L60.1882 36.3331L65.5749 33.6801L65.3354 27.1862C67.191 27.5845 69.3149 26.97 68.2729 38.3105C61.1739 36.7305 54.0749 35.1505 46.9759 33.5704L37.7431 40.4574Z" sodipodi:nodetypes="ccccccccccccccccccccccc"/><path id="shape1" transform="translate(29.9769850244167, 32.6570671701853)" fill="#ad6841" fill-rule="evenodd" stroke="#ad6841" stroke-width="0.24" stroke-linecap="square" stroke-linejoin="bevel" d="M10.5263 25.0918C7.64677 24.376 4.7558 22.5207 1.85157 19.3461L0 0C15.194 9.39897 27.0317 6.16885 36.422 0.656273L36.9991 18.8507L32.1086 21.9002Z" sodipodi:nodetypes="ccccccc"/><path id="shape2" transform="translate(26.2041471332074, 8.49452468889785)" fill="#ad6841" fill-rule="evenodd" stroke="#ad6841" stroke-width="0.24" stroke-linecap="square" stroke-linejoin="bevel" d="M0.186894 10.5578C7.35258 25.6215 45.9355 19.2697 42.0434 9.7608L40.7507 1.56492L38.5311 0L39.1349 1.8253C43.1534 12.9586 -6.27787 14.9644 2.70998 4.31261L2.34672 2.47529C1.45802 4.95891 -0.633125 5.94234 0.186894 10.5578Z" sodipodi:nodetypes="cccccccc"/><path id="shape3" transform="translate(28.0537356263962, 1.13288689782949)" fill="#e5decf" fill-rule="evenodd" stroke="#ad6841" stroke-width="0.24" stroke-linecap="square" stroke-linejoin="bevel" d="M1.32359 10.6055C-9.44668 25.403 49.4435 16.8806 36.274 8.63039C36.5874 6.98071 37.2068 5.12262 34.4144 5.58898C32.6939 1.10133 29.9773 1.56835 27.3067 1.80666C23.8086 1.69083 19.6031 -1.5751 14.3732 0.964282C5.01824 0.428807 4.49263 3.07223 5.63474 6.3161C0.932195 5.7839 -0.552929 7.01641 0.709792 9.75606Z" sodipodi:nodetypes="cccccccc"/><path id="shape4" transform="translate(10.6416775824918, 52.015994831241)" fill="#ebdbbc" fill-rule="evenodd" stroke="#ebcb8b" stroke-width="0.24" stroke-linecap="square" stroke-linejoin="bevel" d="M0 39.1374C13.9431 42.1818 26.1917 46.931 35.9152 54.2205C50.1288 55.3132 62.1807 59.4473 73.2927 64.904C83.0926 50.456 92.5942 35.7462 103.977 22.6877C94.9348 15.4835 84.2602 11.1936 71.343 10.9067C54.1635 -0.0967397 47.9501 2.87005 37.1551 0C22.1665 10.9254 10.7085 24.7262 0 39.1374Z" sodipodi:nodetypes="ccccccc"/><path id="shape5" transform="translate(10.833737207611, 74.7810456523844)" fill="#ebdbbc" fill-rule="evenodd" stroke="#ebcb8b" stroke-width="0.24" stroke-linecap="square" stroke-linejoin="bevel" d="M0.48868 16.5982L2.1771 19.0846C13.6987 22.464 24.3285 28.0752 35.0674 33.4132C47.8458 36.4653 60.5772 38.3077 73.5007 45.0858C83.8751 30.9548 93.6771 16.0535 104.759 2.87408L104.157 0C92.8947 11.8935 82.9582 26.6123 73.3164 41.9591C65.4037 38.2619 60.155 34.5118 35.6151 31.1451C24.5057 25.3932 14.3737 18.6013 0 16.3232Z" sodipodi:nodetypes="cccccccccc"/><path id="shape6" transform="translate(12.4748536774648, 75.8325063523682)" fill="#ad6841" fill-rule="evenodd" stroke="#643b12" stroke-width="0.24" stroke-linecap="square" stroke-linejoin="bevel" d="M0.709697 17.9866C12.229 21.8867 23.0937 26.6862 33.3022 32.3869C47.8447 34.7749 60.247 38.839 71.6609 43.6771L103.107 1.59482L102.645 0L105.44 1.31927L72.0992 46.143L35.9848 34.5166C34.0111 36.7815 31.7876 35.1755 29.4646 32.0269L0 19.9978L0.177698 18.2919Z" sodipodi:nodetypes="cccccccccccc"/><path id="shape01" transform="translate(10.742710934042, 52.2057674880841)" fill="none" stroke="#000000" stroke-width="1.2" stroke-linecap="round" stroke-linejoin="miter" stroke-miterlimit="1.9992" d="M0 38.6387C11.6786 22.6217 23.1895 10.2662 37.0888 0" sodipodi:nodetypes="cc"/><path id="shape11" transform="translate(48.0733264185603, 51.9933684395767)" fill="none" stroke="#000000" stroke-width="1.2" stroke-linecap="round" stroke-linejoin="miter" stroke-miterlimit="1.9992" d="M0 0C13.9898 1.28193 24.1947 4.54286 34.0135 10.948" sodipodi:nodetypes="cc"/><path id="shape21" transform="translate(11.3305782437109, 91.3535279291571)" fill="none" stroke="#131313" stroke-width="1.2" stroke-linecap="round" stroke-linejoin="miter" stroke-miterlimit="1.9992" d="M0 0C14.3745 3.12115 24.7417 7.55917 35.15 14.7036" sodipodi:nodetypes="cc"/><path id="shape31" transform="translate(46.5077992952134, 62.9281679391806)" fill="none" stroke="#131313" stroke-width="1.2" stroke-linecap="round" stroke-linejoin="miter" stroke-miterlimit="1.9992" d="M0 43.1415C12.0552 26.0196 23.5797 11.027 35.8354 0" sodipodi:nodetypes="cc"/><path id="shape41" transform="translate(82.0195091310262, 62.868567253779)" fill="none" stroke="#131313" stroke-width="1.2" stroke-linecap="round" stroke-linejoin="miter" stroke-miterlimit="1.9992" d="M0 0C11.5617 1.22778 23.6389 3.18826 32.7505 11.7569" sodipodi:nodetypes="cc"/><path id="shape51" transform="translate(46.9098689158251, 106.075450157069)" fill="none" stroke="#131313" stroke-width="1.2" stroke-linecap="round" stroke-linejoin="miter" stroke-miterlimit="1.9992" d="M0 0C13.8553 2.06725 28.8208 5.30977 37.3913 10.7872" sodipodi:nodetypes="cc"/><path id="shape61" transform="translate(84.1557817350011, 74.7141261096379)" fill="none" stroke="#131313" stroke-width="1.2" stroke-linecap="round" stroke-linejoin="miter" stroke-miterlimit="1.9992" d="M0 42.2277C10.1124 26.6579 19.9735 11.8945 30.5352 0" sodipodi:nodetypes="cc"/><path id="shape7" transform="translate(12.6091349073209, 95.7350966006451)" fill="none" stroke="#131313" stroke-width="1.2" stroke-linecap="round" stroke-linejoin="miter" stroke-miterlimit="1.9992" d="M0 0L29.6061 12.0191" sodipodi:nodetypes="cc"/><path id="shape8" transform="translate(48.1721709071774, 110.16691372825)" fill="none" stroke="#131313" stroke-width="1.2" stroke-linecap="round" stroke-linejoin="miter" stroke-miterlimit="1.9992" d="M0 0C11.5792 3.4851 24.6297 8.01699 36.2088 11.5021" sodipodi:nodetypes="cc"/><path id="shape9" transform="translate(42.2942728825013, 107.769919983469)" fill="none" stroke="#131313" stroke-width="1.2" stroke-linecap="round" stroke-linejoin="miter" stroke-miterlimit="1.9992" d="M0 0C2.36279 3.84778 3.89875 4.31089 5.75456 2.66576" sodipodi:nodetypes="cc"/><path id="shape10" transform="translate(10.7463970128983, 91.0085985699647)" fill="none" stroke="#131313" stroke-width="1.2" stroke-linecap="round" stroke-linejoin="miter" stroke-miterlimit="1.9992" d="M0 0L2.22532 3.15339" sodipodi:nodetypes="cc"/><path id="shape111" transform="translate(12.4113425038638, 94.1164182240514)" fill="none" stroke="#131313" stroke-width="1.2" stroke-linecap="round" stroke-linejoin="miter" stroke-miterlimit="1.9992" d="M0 1.4983L0.529889 0" sodipodi:nodetypes="cc"/><path id="shape12" transform="translate(13.1721978389055, 93.9620394500676)" fill="none" stroke="#131313" stroke-width="1.2" stroke-linecap="round" stroke-linejoin="miter" stroke-miterlimit="1.9992" d="M0 0C11.8969 3.83306 22.657 8.56158 32.3869 14.1015" sodipodi:nodetypes="cc"/><path id="shape13" transform="translate(46.1486415356815, 108.204471968302)" fill="none" stroke="#131313" stroke-width="1.2" stroke-linecap="round" stroke-linejoin="miter" stroke-miterlimit="1.9992" d="M0 0C22.3518 3.73097 37.8243 11.3351 37.9495 11.5384" sodipodi:nodetypes="cc"/><path id="shape14" transform="translate(84.3063788885323, 77.4744003803046)" fill="none" stroke="#131313" stroke-width="1.2" stroke-linecap="round" stroke-linejoin="miter" stroke-miterlimit="1.9992" d="M31.2602 0C20.8787 12.3446 10.4293 27.8528 0 42.4264" sodipodi:nodetypes="cc"/><path id="shape15" transform="translate(114.780728760676, 74.5089107499375)" fill="none" stroke="#131313" stroke-width="1.2" stroke-linecap="round" stroke-linejoin="miter" stroke-miterlimit="1.9992" d="M0 0L0.697358 3.04769" sodipodi:nodetypes="cc"/><path id="shape16" transform="translate(84.3403777387473, 77.0619087302678)" fill="none" stroke="#131313" stroke-width="1.2" stroke-linecap="round" stroke-linejoin="miter" stroke-miterlimit="1.9992" d="M0 44.9845L33.4723 0" sodipodi:nodetypes="cc"/><path id="shape17" transform="translate(115.373007991652, 75.9161011382774)" fill="none" stroke="#131313" stroke-width="1.2" stroke-linecap="round" stroke-linejoin="miter" stroke-miterlimit="1.9992" d="M2.41813 0.777691L0 0" sodipodi:nodetypes="cc"/><path id="shape18" transform="translate(48.3302063584571, 107.859952475762)" fill="#ff0000" fill-rule="evenodd" stroke="#ff0000" stroke-width="0.24" stroke-linecap="square" stroke-linejoin="bevel" d="M7.30364 0.842447C7.43261 4.48555 4.8266 7.41956 5.54295 11.0201L2.56655 8.72988L0.408451 11.1315C-1.24814 7.37392 2.69642 4.35689 2.2882 0Z" sodipodi:nodetypes="cccccc"/><path id="shape02" transform="translate(48.2295233804974, 108.151218953138)" fill="none" stroke="#131313" stroke-width="1.2" stroke-linecap="round" stroke-linejoin="miter" stroke-miterlimit="1.9992" d="M2.31982 0C3.71882 3.20496 -0.990088 5.27092 0.192542 10.3318" sodipodi:nodetypes="cc"/><path id="shape19" transform="translate(53.6885470655164, 108.738248547595)" fill="none" stroke="#131313" stroke-width="1.2" stroke-linecap="round" stroke-linejoin="miter" stroke-miterlimit="1.9992" d="M1.98861 0C2.78846 3.45068 -1.18871 6.28283 0.362711 10.2421" sodipodi:nodetypes="cc"/><path id="shape22" transform="translate(50.6520097484668, 107.776696381661)" fill="none" stroke="#131313" stroke-width="1.2" stroke-linecap="round" stroke-linejoin="miter" stroke-miterlimit="1.9992" d="M0 0L4.76549 1.00658" sodipodi:nodetypes="cc"/><path id="shape32" transform="translate(48.7979082902768, 116.54386954914)" fill="none" stroke="#131313" stroke-width="1.2" stroke-linecap="round" stroke-linejoin="miter" stroke-miterlimit="1.9992" d="M0 2.32752L2.17744 0" sodipodi:nodetypes="cc"/><path id="shape20" transform="translate(50.9986239758424, 116.7244308801)" fill="none" stroke="#000000" stroke-width="1.2" stroke-linecap="round" stroke-linejoin="miter" stroke-miterlimit="1.9992" d="M0 0C0.942093 0.425683 1.91339 1.39454 2.88485 2.36645" sodipodi:nodetypes="cc"/><path id="shape23" transform="translate(26.3371406305208, 11.0211992059318)" fill="none" stroke="#000000" stroke-width="1.2" stroke-linecap="round" stroke-linejoin="miter" stroke-miterlimit="0" d="M0.000820609 6.35613C-0.0286703 4.05587 0.736985 2.01217 2.25489 0" sodipodi:nodetypes="cc"/><path id="shape24" transform="translate(26.5341388870253, 17.7975225798524)" fill="none" stroke="#000000" stroke-width="1.2" stroke-linecap="round" stroke-linejoin="miter" stroke-miterlimit="0" d="M0 0C4.32021 2.79488 7.68893 3.81508 11.0388 4.00591" sodipodi:nodetypes="cc"/><path id="shape25" transform="translate(29.8685386585961, 33.3638297793645)" fill="none" stroke="#000000" stroke-width="1.2" stroke-linecap="round" stroke-linejoin="miter" stroke-miterlimit="0" d="M0 0L1.69932 18.666" sodipodi:nodetypes="cc"/><path id="shape26" transform="translate(40.8958928424668, 37.9689264867643)" fill="none" stroke="#000000" stroke-width="1.2" stroke-linecap="round" stroke-linejoin="miter" stroke-miterlimit="0" d="M0 0L0.753529 18.3197" sodipodi:nodetypes="cc"/><path id="shape27" transform="translate(56.4582428588318, 37.2453767551825)" fill="none" stroke="#000000" stroke-width="1.2" stroke-linecap="round" stroke-linejoin="miter" stroke-miterlimit="0" d="M0.0155047 0L0 15.3561" sodipodi:nodetypes="cc"/><path id="shape28" transform="translate(66.3836966377752, 33.2013438437966)" fill="none" stroke="#000000" stroke-width="1.2" stroke-linecap="round" stroke-linejoin="miter" stroke-miterlimit="0" d="M0 0L0.519783 18.0056" sodipodi:nodetypes="cc"/><path id="shape29" transform="translate(27.4686158034996, 30.7003217538216)" fill="none" stroke="#000000" stroke-width="1.2" stroke-linecap="round" stroke-linejoin="miter" stroke-miterlimit="0" d="M0 0C13.0735 10.7477 32.3307 8.31355 39.2911 2.18348" sodipodi:nodetypes="cc"/><path id="shape30" transform="translate(25.6693044331384, 23.6050365138382)" fill="none" stroke="#000000" stroke-width="1.2" stroke-linecap="round" stroke-linejoin="miter" stroke-miterlimit="0" d="M0 0C1.81223 2.08465 2.32492 4.43306 1.69103 7.01419" sodipodi:nodetypes="cc"/><path id="shape33" transform="translate(25.3443452808855, 18.9113129612168)" fill="none" stroke="#000000" stroke-width="1.2" stroke-linecap="round" stroke-linejoin="miter" stroke-miterlimit="0" d="M0.078588 4.93247C0.134266 3.16927 -0.468666 1.08359 0.974966 0" sodipodi:nodetypes="cc"/><path id="shape34" transform="translate(26.4425320703474, 17.8989209692659)" fill="none" stroke="#000000" stroke-width="1.2" stroke-linecap="round" stroke-linejoin="miter" stroke-miterlimit="0" d="M0 1.29792C1.29819 12.6864 44.7455 13.7065 41.524 0" sodipodi:nodetypes="cc"/><path id="shape35" transform="translate(38.3114119046361, 21.8178110670138)" fill="none" stroke="#000000" stroke-width="1.2" stroke-linecap="round" stroke-linejoin="miter" stroke-miterlimit="0" d="M0 0L0.496359 4.79061" sodipodi:nodetypes="cc"/><path id="shape36" transform="translate(56.9133227153004, 20.8375396225369)" fill="none" stroke="#000000" stroke-width="1.2" stroke-linecap="round" stroke-linejoin="miter" stroke-miterlimit="0" d="M0.103574 5.28021L0 0" sodipodi:nodetypes="cc"/><path id="shape37" transform="translate(9.34440570540055, 30.7954352287048)" fill="none" stroke="#000000" stroke-width="1.2" stroke-linecap="round" stroke-linejoin="miter" stroke-miterlimit="0" d="M18.1987 0C11.8418 0.818993 2.44824 -0.876879 0 3.17898" sodipodi:nodetypes="cc"/><path id="shape38" transform="translate(18.1086354423724, 53.2720168147029)" fill="none" stroke="#000000" stroke-width="1.2" stroke-linecap="round" stroke-linejoin="miter" stroke-miterlimit="0" d="M11.0539 0C7.64314 1.5041 4.61924 4.20389 0 1.97289" sodipodi:nodetypes="cc"/><path id="shape39" transform="translate(9.0849395988327, 34.3590090261876)" fill="none" stroke="#000000" stroke-width="1.2" stroke-linecap="round" stroke-linejoin="miter" stroke-miterlimit="0" d="M0 0C3.02311 7.66456 5.94706 14.3399 8.85356 20.8412" sodipodi:nodetypes="cc"/><path id="shape40" transform="translate(1.45368436215731, 23.6707936973791)" fill="none" stroke="#000000" stroke-width="1.2" stroke-linecap="round" stroke-linejoin="miter" stroke-miterlimit="0" d="M23.8173 0.337241C13.5277 -0.715158 4.48855 0.317327 0 8.93631" sodipodi:nodetypes="cc"/><path id="shape42" transform="translate(1.5590931734322, 32.5145279333041)" fill="none" stroke="#000000" stroke-width="1.2" stroke-linecap="round" stroke-linejoin="miter" stroke-miterlimit="0" d="M0 0C3.97224 13.1555 10.3097 28.3848 17.3612 31.3451" sodipodi:nodetypes="cc"/><path id="shape43" transform="translate(18.9030246697437, 60.7832765999709)" fill="none" stroke="#000000" stroke-width="1.2" stroke-linecap="round" stroke-linejoin="miter" stroke-miterlimit="0" d="M0 3.05293L11.417 0" sodipodi:nodetypes="cc"/><path id="shape44" transform="translate(30.1816351853778, 60.7421947744187)" fill="none" stroke="#000000" stroke-width="1.2" stroke-linecap="round" stroke-linejoin="miter" stroke-miterlimit="0" d="M0 0C0.935809 1.18988 1.87984 2.44701 2.71742 2.83306" sodipodi:nodetypes="cc"/><path id="shape45" transform="translate(31.9123184779767, 52.2268183710351)" fill="none" stroke="#000000" stroke-width="1.2" stroke-linecap="round" stroke-linejoin="miter" stroke-miterlimit="0" d="M0 0C2.17131 2.3896 4.60444 4.3921 7.73565 5.36241" sodipodi:nodetypes="cc"/><path id="shape46" transform="translate(29.0617816301752, 47.0476417237036)" fill="none" stroke="#000000" stroke-width="1.2" stroke-linecap="round" stroke-linejoin="miter" stroke-miterlimit="0" d="M0.0852766 6.09179C-0.31855 3.70337 0.800675 1.91895 1.58067 0" sodipodi:nodetypes="cc"/><path id="shape47" transform="translate(29.5846093078557, 53.5827572077286)" fill="none" stroke="#000000" stroke-width="1.2" stroke-linecap="round" stroke-linejoin="miter" stroke-miterlimit="0" d="M0 0C2.78949 2.44913 5.6073 4.74115 8.73594 5.30798" sodipodi:nodetypes="cc"/><path id="shape48" transform="translate(28.6828128703189, 53.6259518628155)" fill="none" stroke="#000000" stroke-width="1.2" stroke-linecap="round" stroke-linejoin="miter" stroke-miterlimit="0" d="M0 0C0.899019 2.36277 2.11749 4.79675 1.41416 6.80237" sodipodi:nodetypes="cc"/><path id="shape49" transform="translate(62.6293047562569, 51.4147665161371)" fill="none" stroke="#000000" stroke-width="1.2" stroke-linecap="round" stroke-linejoin="miter" stroke-miterlimit="0" d="M0 2.5638C1.91224 1.75798 3.40455 0.90905 4.31129 0" sodipodi:nodetypes="cc"/><path id="shape50" transform="translate(67.2587988932305, 45.4983891272719)" fill="none" stroke="#000000" stroke-width="1.2" stroke-linecap="round" stroke-linejoin="miter" stroke-miterlimit="0" d="M0 0C1.3922 1.14325 3.38067 0.146833 2.19227 10.5503" sodipodi:nodetypes="cc"/><path id="shape52" transform="translate(66.0692072065772, 16.2578576933534)" fill="none" stroke="#000000" stroke-width="1.2" stroke-linecap="round" stroke-linejoin="miter" stroke-miterlimit="0" d="M0.100056 0L0 6.70825" sodipodi:nodetypes="cc"/><path id="shape53" transform="translate(66.6246620577168, 17.8333015593338)" fill="none" stroke="#000000" stroke-width="1.2" stroke-linecap="round" stroke-linejoin="miter" stroke-miterlimit="0" d="M0 14.9973C3.09479 11.7731 1.64667 5.42013 1.55302 0" sodipodi:nodetypes="cc"/><path id="shape54" transform="translate(38.369125240046, 9.86972665340264)" fill="none" stroke="#000000" stroke-width="1.2" stroke-linecap="round" stroke-linejoin="miter" stroke-miterlimit="0" d="M0 11.971C15.456 12.1543 32.1043 9.55628 28.3594 0" sodipodi:nodetypes="cc"/><path id="shape55" transform="translate(67.5057092135606, 12.1725083691475)" fill="none" stroke="#000000" stroke-width="1.2" stroke-linecap="round" stroke-linejoin="miter" stroke-miterlimit="0" d="M0.681411 5.73914L0 0" sodipodi:nodetypes="cc"/><path id="shape56" transform="translate(28.0301206996256, 9.93750184530671)" fill="none" stroke="#000000" stroke-width="1.2" stroke-linecap="round" stroke-linejoin="miter" stroke-miterlimit="0" d="M1.25311 2.04026C-8.75108 15.7327 44.6701 9.39372 36.8355 0" sodipodi:nodetypes="cc"/><path id="shape57" transform="translate(62.7839142819246, 6.54528243990678)" fill="none" stroke="#000000" stroke-width="1.2" stroke-linecap="round" stroke-linejoin="miter" stroke-miterlimit="0" d="M0 0C1.95459 0.607045 2.0982 1.87214 1.88281 3.26768" sodipodi:nodetypes="cc"/><path id="shape58" transform="translate(55.6896295274571, 2.8976806965689)" fill="none" stroke="#000000" stroke-width="1.2" stroke-linecap="round" stroke-linejoin="miter" stroke-miterlimit="0" d="M6.93792 3.71772C5.5966 1.52459 4.29249 -0.707798 0 0.212843" sodipodi:nodetypes="cc"/><path id="shape59" transform="translate(42.6800316096352, 1.02545178824471)" fill="none" stroke="#000000" stroke-width="1.2" stroke-linecap="round" stroke-linejoin="miter" stroke-miterlimit="0" d="M12.9526 2.72496C7.08535 -0.157493 2.57943 -0.933429 0 1.27155" sodipodi:nodetypes="cc"/><path id="shape60" transform="translate(33.3430939403899, 2.1821659594591)" fill="none" stroke="#000000" stroke-width="1.2" stroke-linecap="round" stroke-linejoin="miter" stroke-miterlimit="0" d="M9.08979 0.169097C3.3885 -0.319264 -1.37121 -0.0655436 0.361168 5.30474" sodipodi:nodetypes="cc"/><path id="shape62" transform="translate(28.5501430580949, 7.49637494265393)" fill="none" stroke="#000000" stroke-width="1.2" stroke-linecap="round" stroke-linejoin="miter" stroke-miterlimit="0" d="M4.8891 0.0175141C1.49023 -0.0868323 -1.33273 0.178155 0.665088 3.53467" sodipodi:nodetypes="cc"/><path id="shape63" transform="translate(35.6832236378412, 12.4667567640215)" fill="none" stroke="#000000" stroke-width="1.2" stroke-linecap="round" stroke-linejoin="miter" stroke-miterlimit="0" d="M0 2.6734C2.44565 -1.22118 5.46152 -0.80613 9.00055 3.56277" sodipodi:nodetypes="cc"/><path id="shape64" transform="translate(44.0427314118483, 5.76957910322777)" fill="none" stroke="#000000" stroke-width="1.2" stroke-linecap="round" stroke-linejoin="miter" stroke-miterlimit="0" d="M0 5.52665C1.51344 -0.159353 6.67665 -1.37801 9.50876 1.50254" sodipodi:nodetypes="cc"/><path id="shape65" transform="translate(51.2876381493211, 11.1316464613998)" fill="none" stroke="#000000" stroke-width="1.2" stroke-linecap="round" stroke-linejoin="miter" stroke-miterlimit="0" d="M0 4.23086C1.55644 0.432861 4.29985 -1.31363 9.46545 1.12634" sodipodi:nodetypes="cc"/><path id="shape66" transform="translate(65.0093586819918, 8.66161350292387)" fill="none" stroke="#000000" stroke-width="1.2" stroke-linecap="round" stroke-linejoin="miter" stroke-miterlimit="0" d="M1.63148 1.30345L0 0" sodipodi:nodetypes="cc"/><path id="shape67" transform="translate(72.0684857013541, 76.4547243470886)" fill="#f2fc24" fill-rule="evenodd" stroke="#f2fc24" stroke-width="1.2" stroke-linecap="square" stroke-linejoin="bevel" d="M4.188 11.931L4.80508 14.7546C3.12258 15.274 1.10066 16.1976 3.13915 18.9672C7.60233 20.9253 7.11609 12.9603 9.6905 8.15671C11.693 5.83409 14.1575 5.56861 16.581 5.12058C15.4306 3.22673 13.5016 2.2851 11.3407 1.62705C9.51729 2.41909 9.82374 3.33147 10.4988 4.26468L8.16258 6.29323C7.80672 5.06257 7.08041 3.93539 7.63421 2.45062C9.67908 1.14033 11.517 -0.43447 15.0136 0.110953C18.5413 1.96676 21.7325 5.42567 25.5967 5.67838C24.1542 6.54498 22.869 7.61732 20.1888 6.86445C19.1434 5.94985 18.2598 5.50863 17.5687 5.63094C13.5647 8.18476 11.0861 10.8412 10.4831 17.4377C8.97218 19.2771 8.22422 22.1377 4.38121 20.8552C2.88538 19.9019 1.07564 19.6693 0.264683 17.1113C0.0707171 15.5679 -0.180712 14.0364 0.191737 12.375C1.39099 11.6209 2.76789 11.6743 4.188 11.931Z" sodipodi:nodetypes="cccccccccccccccccc"/><path id="shape68" transform="translate(32.1382258359758, 73.2040546587043)" fill="#f2fc24" fill-rule="evenodd" stroke="#f2fc24" stroke-width="1.2" stroke-linecap="square" stroke-linejoin="bevel" d="M3.27751 6.48428C1.74954 4.99238 7.97169 1.20494 10.5583 0.482852L9.87501 0C5.5522 2.46247 -2.08395 4.08225 0.53375 8.30994Z" sodipodi:nodetypes="ccccc"/><path id="shape69" transform="translate(36.7873610053796, 74.8367355974317)" fill="#f2fc24" fill-rule="evenodd" stroke="#f2fc24" stroke-width="1.2" stroke-linecap="square" stroke-linejoin="bevel" d="M0 2.89593C0.988691 2.28205 2.259 4.56404 3.92938 10.96C15.2152 10.4261 18.6805 6.22911 17.8074 0L12.7984 1.04999C12.6927 -0.440334 18.9339 8.43177 6.90815 9.22929C5.37305 8.199 4.90678 0.923948 3.04785 0.795825Z" sodipodi:nodetypes="ccccccc"/><path id="shape70" transform="translate(41.3951276613079, 64.1007025920966)" fill="#f2fc24" fill-rule="evenodd" stroke="#f2fc24" stroke-width="1.2" stroke-linecap="square" stroke-linejoin="bevel" d="M12.8579 10.3521C5.89946 12.4763 -1.08613 9.54931 6.59203 2.78144C8.96822 4.02663 11.2098 5.41504 13.7704 7.45473C16.6437 7.56549 17.3922 7.00528 18.9415 6.69792C16.7375 6.54809 12.2916 2.23264 8.96665 0C3.92229 0.389224 -1.39629 1.82558 0.333358 8.64515C1.9212 10.7256 3.37091 12.9717 7.60357 11.8809Z" sodipodi:nodetypes="cccccccc"/>
</svg>
