<svg width="19" height="25" viewBox="0 0 19 25" fill="none" xmlns="http://www.w3.org/2000/svg">
<path d="M2.375 25C1.72187 25 1.16276 24.7669 0.697656 24.3006C0.232552 23.8343 0 23.2738 0 22.619V10.7143C0 10.0595 0.232552 9.49901 0.697656 9.03274C1.16276 8.56647 1.72187 8.33333 2.375 8.33333H3.5625V5.95238C3.5625 4.30556 4.14141 2.90179 5.29922 1.74107C6.45703 0.580357 7.85729 0 9.5 0C11.1427 0 12.543 0.580357 13.7008 1.74107C14.8586 2.90179 15.4375 4.30556 15.4375 5.95238V8.33333H16.625C17.2781 8.33333 17.8372 8.56647 18.3023 9.03274C18.7674 9.49901 19 10.0595 19 10.7143V22.619C19 23.2738 18.7674 23.8343 18.3023 24.3006C17.8372 24.7669 17.2781 25 16.625 25H2.375ZM2.375 22.619H16.625V10.7143H2.375V22.619ZM11.1773 18.3482C11.6424 17.8819 11.875 17.3214 11.875 16.6667C11.875 16.0119 11.6424 15.4514 11.1773 14.9851C10.7122 14.5188 10.1531 14.2857 9.5 14.2857C8.84688 14.2857 8.28776 14.5188 7.82266 14.9851C7.35755 15.4514 7.125 16.0119 7.125 16.6667C7.125 17.3214 7.35755 17.8819 7.82266 18.3482C8.28776 18.8145 8.84688 19.0476 9.5 19.0476C10.1531 19.0476 10.7122 18.8145 11.1773 18.3482ZM5.9375 8.33333H13.0625V5.95238C13.0625 4.96032 12.7161 4.11706 12.0234 3.42262C11.3307 2.72817 10.4896 2.38095 9.5 2.38095C8.51042 2.38095 7.66927 2.72817 6.97656 3.42262C6.28385 4.11706 5.9375 4.96032 5.9375 5.95238V8.33333Z" fill="#4C4C4C"/>
</svg>
